<mxfile host="app.diagrams.net" modified="2020-03-15T15:32:59.144Z" agent="Mozilla/5.0 (Windows NT 10.0; Win64; x64) AppleWebKit/537.36 (KHTML, like Gecko) Chrome/79.0.3945.130 Safari/537.36" etag="DLRWR4Qg5iCp05uCDAM0" version="12.8.5" type="github">
  <diagram id="hTagGnIoJ7V8Iv_9_7bS" name="Page-1">
    <mxGraphModel dx="1268" dy="850" grid="0" gridSize="10" guides="1" tooltips="1" connect="1" arrows="1" fold="1" page="0" pageScale="1" pageWidth="827" pageHeight="1169" math="0" shadow="0">
      <root>
        <mxCell id="0" />
        <mxCell id="1" parent="0" />
        <mxCell id="Y4NBbjf7CDGHRnMnbZGx-17" style="rounded=0;orthogonalLoop=1;jettySize=auto;html=1;exitX=0.5;exitY=1;exitDx=0;exitDy=0;entryX=0.5;entryY=0;entryDx=0;entryDy=0;" edge="1" parent="1" source="Y4NBbjf7CDGHRnMnbZGx-1" target="Y4NBbjf7CDGHRnMnbZGx-15">
          <mxGeometry relative="1" as="geometry" />
        </mxCell>
        <mxCell id="Y4NBbjf7CDGHRnMnbZGx-18" style="edgeStyle=none;rounded=0;orthogonalLoop=1;jettySize=auto;html=1;exitX=0.5;exitY=1;exitDx=0;exitDy=0;entryX=0.5;entryY=0;entryDx=0;entryDy=0;" edge="1" parent="1" source="Y4NBbjf7CDGHRnMnbZGx-1" target="Y4NBbjf7CDGHRnMnbZGx-12">
          <mxGeometry relative="1" as="geometry" />
        </mxCell>
        <mxCell id="Y4NBbjf7CDGHRnMnbZGx-19" style="edgeStyle=none;rounded=0;orthogonalLoop=1;jettySize=auto;html=1;exitX=0.5;exitY=1;exitDx=0;exitDy=0;entryX=0.5;entryY=0;entryDx=0;entryDy=0;" edge="1" parent="1" source="Y4NBbjf7CDGHRnMnbZGx-1" target="Y4NBbjf7CDGHRnMnbZGx-2">
          <mxGeometry relative="1" as="geometry" />
        </mxCell>
        <mxCell id="Y4NBbjf7CDGHRnMnbZGx-20" style="edgeStyle=none;rounded=0;orthogonalLoop=1;jettySize=auto;html=1;exitX=0.5;exitY=1;exitDx=0;exitDy=0;entryX=0.5;entryY=0;entryDx=0;entryDy=0;" edge="1" parent="1" source="Y4NBbjf7CDGHRnMnbZGx-1" target="Y4NBbjf7CDGHRnMnbZGx-11">
          <mxGeometry relative="1" as="geometry" />
        </mxCell>
        <mxCell id="Y4NBbjf7CDGHRnMnbZGx-21" style="edgeStyle=none;rounded=0;orthogonalLoop=1;jettySize=auto;html=1;exitX=0.5;exitY=1;exitDx=0;exitDy=0;entryX=0.5;entryY=0;entryDx=0;entryDy=0;" edge="1" parent="1" source="Y4NBbjf7CDGHRnMnbZGx-1" target="Y4NBbjf7CDGHRnMnbZGx-13">
          <mxGeometry relative="1" as="geometry" />
        </mxCell>
        <mxCell id="Y4NBbjf7CDGHRnMnbZGx-22" style="edgeStyle=none;rounded=0;orthogonalLoop=1;jettySize=auto;html=1;exitX=0.5;exitY=1;exitDx=0;exitDy=0;entryX=0.5;entryY=0;entryDx=0;entryDy=0;" edge="1" parent="1" source="Y4NBbjf7CDGHRnMnbZGx-1" target="Y4NBbjf7CDGHRnMnbZGx-14">
          <mxGeometry relative="1" as="geometry" />
        </mxCell>
        <mxCell id="Y4NBbjf7CDGHRnMnbZGx-23" style="edgeStyle=none;rounded=0;orthogonalLoop=1;jettySize=auto;html=1;exitX=0.5;exitY=1;exitDx=0;exitDy=0;entryX=0.5;entryY=0;entryDx=0;entryDy=0;" edge="1" parent="1" source="Y4NBbjf7CDGHRnMnbZGx-1" target="Y4NBbjf7CDGHRnMnbZGx-16">
          <mxGeometry relative="1" as="geometry" />
        </mxCell>
        <mxCell id="Y4NBbjf7CDGHRnMnbZGx-1" value="Buffer" style="rounded=0;whiteSpace=wrap;html=1;gradientColor=#97d077;fillColor=#d5e8d4;strokeColor=#82b366;" vertex="1" parent="1">
          <mxGeometry x="286" y="-367" width="120" height="60" as="geometry" />
        </mxCell>
        <mxCell id="Y4NBbjf7CDGHRnMnbZGx-2" value="IntBuffer" style="rounded=0;whiteSpace=wrap;html=1;fillColor=#d5e8d4;strokeColor=#82b366;" vertex="1" parent="1">
          <mxGeometry x="209" y="-233" width="83" height="39" as="geometry" />
        </mxCell>
        <mxCell id="Y4NBbjf7CDGHRnMnbZGx-11" value="LongBuffer" style="rounded=0;whiteSpace=wrap;html=1;fillColor=#d5e8d4;strokeColor=#82b366;" vertex="1" parent="1">
          <mxGeometry x="313" y="-233" width="83" height="39" as="geometry" />
        </mxCell>
        <mxCell id="Y4NBbjf7CDGHRnMnbZGx-12" value="ShortBuffer" style="rounded=0;whiteSpace=wrap;html=1;fillColor=#d5e8d4;strokeColor=#82b366;" vertex="1" parent="1">
          <mxGeometry x="108" y="-233" width="83" height="39" as="geometry" />
        </mxCell>
        <mxCell id="Y4NBbjf7CDGHRnMnbZGx-13" value="FloatBuffer" style="rounded=0;whiteSpace=wrap;html=1;fillColor=#d5e8d4;strokeColor=#82b366;" vertex="1" parent="1">
          <mxGeometry x="416" y="-233" width="83" height="39" as="geometry" />
        </mxCell>
        <mxCell id="Y4NBbjf7CDGHRnMnbZGx-14" value="DoubleBuffer" style="rounded=0;whiteSpace=wrap;html=1;fillColor=#d5e8d4;strokeColor=#82b366;" vertex="1" parent="1">
          <mxGeometry x="519" y="-233" width="83" height="39" as="geometry" />
        </mxCell>
        <mxCell id="Y4NBbjf7CDGHRnMnbZGx-25" style="edgeStyle=none;rounded=0;orthogonalLoop=1;jettySize=auto;html=1;exitX=0.5;exitY=1;exitDx=0;exitDy=0;" edge="1" parent="1" source="Y4NBbjf7CDGHRnMnbZGx-15" target="Y4NBbjf7CDGHRnMnbZGx-24">
          <mxGeometry relative="1" as="geometry" />
        </mxCell>
        <mxCell id="Y4NBbjf7CDGHRnMnbZGx-15" value="ByteBuffer" style="rounded=0;whiteSpace=wrap;html=1;fillColor=#d5e8d4;strokeColor=#82b366;" vertex="1" parent="1">
          <mxGeometry x="7" y="-233" width="83" height="39" as="geometry" />
        </mxCell>
        <mxCell id="Y4NBbjf7CDGHRnMnbZGx-16" value="ChartBuffer" style="rounded=0;whiteSpace=wrap;html=1;fillColor=#d5e8d4;strokeColor=#82b366;" vertex="1" parent="1">
          <mxGeometry x="622" y="-233" width="83" height="39" as="geometry" />
        </mxCell>
        <mxCell id="Y4NBbjf7CDGHRnMnbZGx-24" value="MappedByteBuffer" style="rounded=0;whiteSpace=wrap;html=1;fillColor=#d5e8d4;strokeColor=#82b366;" vertex="1" parent="1">
          <mxGeometry x="-5.5" y="-160" width="108" height="39" as="geometry" />
        </mxCell>
        <mxCell id="Y4NBbjf7CDGHRnMnbZGx-26" value="Channel 的 map() 方法返回" style="text;html=1;align=center;verticalAlign=middle;resizable=0;points=[];autosize=1;" vertex="1" parent="1">
          <mxGeometry x="-29.5" y="-110" width="156" height="18" as="geometry" />
        </mxCell>
        <mxCell id="Y4NBbjf7CDGHRnMnbZGx-29" style="edgeStyle=none;rounded=0;orthogonalLoop=1;jettySize=auto;html=1;entryX=0.25;entryY=1;entryDx=0;entryDy=0;endArrow=none;endFill=0;" edge="1" parent="1">
          <mxGeometry relative="1" as="geometry">
            <mxPoint x="381" y="69" as="sourcePoint" />
            <mxPoint x="381" y="69" as="targetPoint" />
          </mxGeometry>
        </mxCell>
        <mxCell id="Y4NBbjf7CDGHRnMnbZGx-33" value="" style="rounded=0;whiteSpace=wrap;html=1;fillColor=#fff2cc;strokeColor=#d6b656;" vertex="1" parent="1">
          <mxGeometry x="102.5" y="32" width="264" height="60" as="geometry" />
        </mxCell>
        <mxCell id="Y4NBbjf7CDGHRnMnbZGx-34" value="" style="rounded=0;whiteSpace=wrap;html=1;fillColor=#d5e8d4;strokeColor=#82b366;" vertex="1" parent="1">
          <mxGeometry x="362" y="32" width="190" height="60" as="geometry" />
        </mxCell>
        <mxCell id="Y4NBbjf7CDGHRnMnbZGx-35" value="" style="rounded=0;whiteSpace=wrap;html=1;fillColor=#f8cecc;strokeColor=#b85450;" vertex="1" parent="1">
          <mxGeometry x="534" y="32" width="132" height="60" as="geometry" />
        </mxCell>
        <mxCell id="Y4NBbjf7CDGHRnMnbZGx-36" style="edgeStyle=none;rounded=0;orthogonalLoop=1;jettySize=auto;html=1;exitX=1;exitY=0.5;exitDx=0;exitDy=0;endArrow=none;endFill=0;" edge="1" parent="1" source="Y4NBbjf7CDGHRnMnbZGx-35" target="Y4NBbjf7CDGHRnMnbZGx-35">
          <mxGeometry relative="1" as="geometry" />
        </mxCell>
        <mxCell id="Y4NBbjf7CDGHRnMnbZGx-37" value="尚未读写的区域" style="text;html=1;align=center;verticalAlign=middle;resizable=0;points=[];autosize=1;" vertex="1" parent="1">
          <mxGeometry x="399" y="7" width="94" height="18" as="geometry" />
        </mxCell>
        <mxCell id="Y4NBbjf7CDGHRnMnbZGx-38" value="无法读写的区域" style="text;html=1;align=center;verticalAlign=middle;resizable=0;points=[];autosize=1;" vertex="1" parent="1">
          <mxGeometry x="553" y="7" width="94" height="18" as="geometry" />
        </mxCell>
        <mxCell id="Y4NBbjf7CDGHRnMnbZGx-39" value="已经读写的区域" style="text;html=1;align=center;verticalAlign=middle;resizable=0;points=[];autosize=1;" vertex="1" parent="1">
          <mxGeometry x="190" y="7" width="94" height="18" as="geometry" />
        </mxCell>
        <mxCell id="Y4NBbjf7CDGHRnMnbZGx-40" value="" style="endArrow=classic;html=1;entryX=0;entryY=1;entryDx=0;entryDy=0;" edge="1" parent="1" target="Y4NBbjf7CDGHRnMnbZGx-33">
          <mxGeometry width="50" height="50" relative="1" as="geometry">
            <mxPoint x="103" y="120" as="sourcePoint" />
            <mxPoint x="-62" y="112" as="targetPoint" />
          </mxGeometry>
        </mxCell>
        <mxCell id="Y4NBbjf7CDGHRnMnbZGx-41" value="" style="endArrow=classic;html=1;entryX=0;entryY=1;entryDx=0;entryDy=0;" edge="1" parent="1">
          <mxGeometry width="50" height="50" relative="1" as="geometry">
            <mxPoint x="362.5" y="120" as="sourcePoint" />
            <mxPoint x="362" y="92" as="targetPoint" />
          </mxGeometry>
        </mxCell>
        <mxCell id="Y4NBbjf7CDGHRnMnbZGx-42" value="" style="endArrow=classic;html=1;entryX=0;entryY=1;entryDx=0;entryDy=0;" edge="1" parent="1">
          <mxGeometry width="50" height="50" relative="1" as="geometry">
            <mxPoint x="534.5" y="120" as="sourcePoint" />
            <mxPoint x="534" y="92" as="targetPoint" />
          </mxGeometry>
        </mxCell>
        <mxCell id="Y4NBbjf7CDGHRnMnbZGx-43" value="" style="endArrow=classic;html=1;entryX=0;entryY=1;entryDx=0;entryDy=0;" edge="1" parent="1">
          <mxGeometry width="50" height="50" relative="1" as="geometry">
            <mxPoint x="666.5" y="120" as="sourcePoint" />
            <mxPoint x="666" y="92" as="targetPoint" />
          </mxGeometry>
        </mxCell>
        <mxCell id="Y4NBbjf7CDGHRnMnbZGx-44" value="0" style="text;html=1;align=center;verticalAlign=middle;resizable=0;points=[];autosize=1;" vertex="1" parent="1">
          <mxGeometry x="95" y="126" width="17" height="18" as="geometry" />
        </mxCell>
        <mxCell id="Y4NBbjf7CDGHRnMnbZGx-45" value="position" style="text;html=1;align=center;verticalAlign=middle;resizable=0;points=[];autosize=1;" vertex="1" parent="1">
          <mxGeometry x="339" y="124" width="51" height="18" as="geometry" />
        </mxCell>
        <mxCell id="Y4NBbjf7CDGHRnMnbZGx-46" value="limit" style="text;html=1;align=center;verticalAlign=middle;resizable=0;points=[];autosize=1;" vertex="1" parent="1">
          <mxGeometry x="520" y="124" width="31" height="18" as="geometry" />
        </mxCell>
        <mxCell id="Y4NBbjf7CDGHRnMnbZGx-47" value="capacity" style="text;html=1;align=center;verticalAlign=middle;resizable=0;points=[];autosize=1;" vertex="1" parent="1">
          <mxGeometry x="645" y="126" width="54" height="18" as="geometry" />
        </mxCell>
        <mxCell id="Y4NBbjf7CDGHRnMnbZGx-48" value="" style="rounded=0;whiteSpace=wrap;html=1;fillColor=#f5f5f5;strokeColor=#666666;fontColor=#333333;opacity=30;" vertex="1" parent="1">
          <mxGeometry x="-2" y="-261" width="720" height="84" as="geometry" />
        </mxCell>
        <mxCell id="Y4NBbjf7CDGHRnMnbZGx-49" value="没有构造方法，通过 static XxxBuffer allocate(int caacity) 创建 XxxBuffer 对象" style="text;html=1;align=center;verticalAlign=middle;resizable=0;points=[];autosize=1;" vertex="1" parent="1">
          <mxGeometry x="339" y="-165" width="420" height="18" as="geometry" />
        </mxCell>
        <mxCell id="Y4NBbjf7CDGHRnMnbZGx-50" value="开始时，Buffer 的 position 为0，limit 为 capacity&amp;nbsp;&amp;nbsp;&lt;br&gt;&lt;br&gt;每次调用 put() 方法向 Buffer 放入数据，position 都会向后移动一些位置&lt;br&gt;&lt;br&gt;数据装完后，调用 flip() 方法，将 limit 设置为 position 所在位置，并将 position 设 0 ，Buffer 可输出&lt;br&gt;&lt;br&gt;输出完后，调用 clear() 方法，将 position 置为 0，limit 置为 capacity，Buffer 可装载" style="text;html=1;align=center;verticalAlign=middle;resizable=0;points=[];autosize=1;" vertex="1" parent="1">
          <mxGeometry x="118" y="222" width="537" height="102" as="geometry" />
        </mxCell>
        <mxCell id="Y4NBbjf7CDGHRnMnbZGx-51" value="" style="endArrow=classic;html=1;entryX=0;entryY=1;entryDx=0;entryDy=0;" edge="1" parent="1">
          <mxGeometry width="50" height="50" relative="1" as="geometry">
            <mxPoint x="187.5" y="120" as="sourcePoint" />
            <mxPoint x="187" y="92" as="targetPoint" />
          </mxGeometry>
        </mxCell>
        <mxCell id="Y4NBbjf7CDGHRnMnbZGx-52" value="调用 reset() 可将 position &lt;br&gt;重置到 mark 位置" style="text;html=1;align=center;verticalAlign=middle;resizable=0;points=[];autosize=1;" vertex="1" parent="1">
          <mxGeometry x="124" y="152" width="144" height="32" as="geometry" />
        </mxCell>
        <mxCell id="Y4NBbjf7CDGHRnMnbZGx-53" value="mark" style="text;html=1;align=center;verticalAlign=middle;resizable=0;points=[];autosize=1;" vertex="1" parent="1">
          <mxGeometry x="168" y="126" width="37" height="18" as="geometry" />
        </mxCell>
        <mxCell id="Y4NBbjf7CDGHRnMnbZGx-54" value="下一个可被读或写的索引" style="text;html=1;align=center;verticalAlign=middle;resizable=0;points=[];autosize=1;" vertex="1" parent="1">
          <mxGeometry x="292" y="152" width="142" height="18" as="geometry" />
        </mxCell>
        <mxCell id="Y4NBbjf7CDGHRnMnbZGx-55" value="limit 后的数据不可读或写" style="text;html=1;align=center;verticalAlign=middle;resizable=0;points=[];autosize=1;" vertex="1" parent="1">
          <mxGeometry x="464" y="152" width="143" height="18" as="geometry" />
        </mxCell>
        <mxCell id="Y4NBbjf7CDGHRnMnbZGx-58" value="get () 或 put() 都分相对和绝对两种&lt;br&gt;&lt;br&gt;相对：会改变 position；绝对：不会改变" style="text;html=1;align=center;verticalAlign=middle;resizable=0;points=[];autosize=1;" vertex="1" parent="1">
          <mxGeometry x="268" y="360" width="223" height="46" as="geometry" />
        </mxCell>
        <mxCell id="Y4NBbjf7CDGHRnMnbZGx-67" style="edgeStyle=none;rounded=0;orthogonalLoop=1;jettySize=auto;html=1;exitX=0.5;exitY=1;exitDx=0;exitDy=0;entryX=0.5;entryY=0;entryDx=0;entryDy=0;endArrow=none;endFill=0;" edge="1" parent="1" source="Y4NBbjf7CDGHRnMnbZGx-59" target="Y4NBbjf7CDGHRnMnbZGx-60">
          <mxGeometry relative="1" as="geometry" />
        </mxCell>
        <mxCell id="Y4NBbjf7CDGHRnMnbZGx-68" style="edgeStyle=none;rounded=0;orthogonalLoop=1;jettySize=auto;html=1;exitX=0.5;exitY=1;exitDx=0;exitDy=0;entryX=0.5;entryY=0;entryDx=0;entryDy=0;endArrow=none;endFill=0;" edge="1" parent="1" source="Y4NBbjf7CDGHRnMnbZGx-59" target="Y4NBbjf7CDGHRnMnbZGx-61">
          <mxGeometry relative="1" as="geometry" />
        </mxCell>
        <mxCell id="Y4NBbjf7CDGHRnMnbZGx-69" style="edgeStyle=none;rounded=0;orthogonalLoop=1;jettySize=auto;html=1;exitX=0.5;exitY=1;exitDx=0;exitDy=0;entryX=0.5;entryY=0;entryDx=0;entryDy=0;endArrow=none;endFill=0;" edge="1" parent="1" source="Y4NBbjf7CDGHRnMnbZGx-59" target="Y4NBbjf7CDGHRnMnbZGx-63">
          <mxGeometry relative="1" as="geometry" />
        </mxCell>
        <mxCell id="Y4NBbjf7CDGHRnMnbZGx-70" style="edgeStyle=none;rounded=0;orthogonalLoop=1;jettySize=auto;html=1;exitX=0.5;exitY=1;exitDx=0;exitDy=0;entryX=0.5;entryY=0;entryDx=0;entryDy=0;endArrow=none;endFill=0;" edge="1" parent="1" source="Y4NBbjf7CDGHRnMnbZGx-59" target="Y4NBbjf7CDGHRnMnbZGx-64">
          <mxGeometry relative="1" as="geometry" />
        </mxCell>
        <mxCell id="Y4NBbjf7CDGHRnMnbZGx-71" style="edgeStyle=none;rounded=0;orthogonalLoop=1;jettySize=auto;html=1;exitX=0.5;exitY=1;exitDx=0;exitDy=0;entryX=0.5;entryY=0;entryDx=0;entryDy=0;endArrow=none;endFill=0;" edge="1" parent="1" source="Y4NBbjf7CDGHRnMnbZGx-59" target="Y4NBbjf7CDGHRnMnbZGx-65">
          <mxGeometry relative="1" as="geometry" />
        </mxCell>
        <mxCell id="Y4NBbjf7CDGHRnMnbZGx-72" style="edgeStyle=none;rounded=0;orthogonalLoop=1;jettySize=auto;html=1;exitX=0.5;exitY=1;exitDx=0;exitDy=0;entryX=0.5;entryY=0;entryDx=0;entryDy=0;endArrow=none;endFill=0;" edge="1" parent="1" source="Y4NBbjf7CDGHRnMnbZGx-59" target="Y4NBbjf7CDGHRnMnbZGx-66">
          <mxGeometry relative="1" as="geometry" />
        </mxCell>
        <mxCell id="Y4NBbjf7CDGHRnMnbZGx-59" value="Channel" style="rounded=0;whiteSpace=wrap;html=1;gradientColor=#97d077;fillColor=#d5e8d4;strokeColor=#82b366;" vertex="1" parent="1">
          <mxGeometry x="1380" y="-365" width="120" height="60" as="geometry" />
        </mxCell>
        <mxCell id="Y4NBbjf7CDGHRnMnbZGx-60" value="FileCnannel" style="rounded=0;whiteSpace=wrap;html=1;fillColor=#d5e8d4;strokeColor=#82b366;" vertex="1" parent="1">
          <mxGeometry x="973" y="-229" width="129" height="45" as="geometry" />
        </mxCell>
        <mxCell id="Y4NBbjf7CDGHRnMnbZGx-61" value="ServerSocketChannel" style="rounded=0;whiteSpace=wrap;html=1;fillColor=#d5e8d4;strokeColor=#82b366;" vertex="1" parent="1">
          <mxGeometry x="1129" y="-229" width="129" height="45" as="geometry" />
        </mxCell>
        <mxCell id="Y4NBbjf7CDGHRnMnbZGx-62" style="edgeStyle=none;rounded=0;orthogonalLoop=1;jettySize=auto;html=1;exitX=0.5;exitY=1;exitDx=0;exitDy=0;endArrow=none;endFill=0;" edge="1" parent="1" source="Y4NBbjf7CDGHRnMnbZGx-61" target="Y4NBbjf7CDGHRnMnbZGx-61">
          <mxGeometry relative="1" as="geometry" />
        </mxCell>
        <mxCell id="Y4NBbjf7CDGHRnMnbZGx-63" value="SocketChannel" style="rounded=0;whiteSpace=wrap;html=1;fillColor=#d5e8d4;strokeColor=#82b366;" vertex="1" parent="1">
          <mxGeometry x="1285" y="-227" width="129" height="45" as="geometry" />
        </mxCell>
        <mxCell id="Y4NBbjf7CDGHRnMnbZGx-64" value="DatagramChannel" style="rounded=0;whiteSpace=wrap;html=1;fillColor=#d5e8d4;strokeColor=#82b366;" vertex="1" parent="1">
          <mxGeometry x="1441" y="-227" width="129" height="45" as="geometry" />
        </mxCell>
        <mxCell id="Y4NBbjf7CDGHRnMnbZGx-65" value="Pipe.SinkChannel" style="rounded=0;whiteSpace=wrap;html=1;fillColor=#d5e8d4;strokeColor=#82b366;" vertex="1" parent="1">
          <mxGeometry x="1597" y="-229" width="129" height="45" as="geometry" />
        </mxCell>
        <mxCell id="Y4NBbjf7CDGHRnMnbZGx-66" value="Pipe.SourceChannel" style="rounded=0;whiteSpace=wrap;html=1;fillColor=#d5e8d4;strokeColor=#82b366;" vertex="1" parent="1">
          <mxGeometry x="1753" y="-229" width="129" height="45" as="geometry" />
        </mxCell>
        <mxCell id="Y4NBbjf7CDGHRnMnbZGx-73" value="" style="shape=curlyBracket;whiteSpace=wrap;html=1;rounded=1;fillColor=none;rotation=-89;" vertex="1" parent="1">
          <mxGeometry x="1268" y="-221" width="20" height="120" as="geometry" />
        </mxCell>
        <mxCell id="Y4NBbjf7CDGHRnMnbZGx-74" value="" style="shape=curlyBracket;whiteSpace=wrap;html=1;rounded=1;fillColor=none;rotation=-89;" vertex="1" parent="1">
          <mxGeometry x="1733" y="-225" width="20" height="120" as="geometry" />
        </mxCell>
        <mxCell id="Y4NBbjf7CDGHRnMnbZGx-75" value="文件" style="text;html=1;align=center;verticalAlign=middle;resizable=0;points=[];autosize=1;" vertex="1" parent="1">
          <mxGeometry x="1011" y="-157" width="34" height="18" as="geometry" />
        </mxCell>
        <mxCell id="Y4NBbjf7CDGHRnMnbZGx-76" value="TCP" style="text;html=1;align=center;verticalAlign=middle;resizable=0;points=[];autosize=1;" vertex="1" parent="1">
          <mxGeometry x="1263" y="-141" width="34" height="18" as="geometry" />
        </mxCell>
        <mxCell id="Y4NBbjf7CDGHRnMnbZGx-77" value="UDP" style="text;html=1;align=center;verticalAlign=middle;resizable=0;points=[];autosize=1;" vertex="1" parent="1">
          <mxGeometry x="1493" y="-165" width="35" height="18" as="geometry" />
        </mxCell>
        <mxCell id="Y4NBbjf7CDGHRnMnbZGx-78" value="线程之间通信" style="text;html=1;align=center;verticalAlign=middle;resizable=0;points=[];autosize=1;" vertex="1" parent="1">
          <mxGeometry x="1707" y="-147" width="82" height="18" as="geometry" />
        </mxCell>
        <mxCell id="Y4NBbjf7CDGHRnMnbZGx-80" value="Selector" style="ellipse;whiteSpace=wrap;html=1;fillColor=#e1d5e7;strokeColor=#9673a6;" vertex="1" parent="1">
          <mxGeometry x="1383" y="16" width="120" height="80" as="geometry" />
        </mxCell>
        <mxCell id="Y4NBbjf7CDGHRnMnbZGx-85" style="edgeStyle=none;rounded=0;orthogonalLoop=1;jettySize=auto;html=1;exitX=0.5;exitY=0;exitDx=0;exitDy=0;entryX=0;entryY=1;entryDx=0;entryDy=0;endArrow=block;endFill=1;" edge="1" parent="1" source="Y4NBbjf7CDGHRnMnbZGx-81" target="Y4NBbjf7CDGHRnMnbZGx-80">
          <mxGeometry relative="1" as="geometry" />
        </mxCell>
        <mxCell id="Y4NBbjf7CDGHRnMnbZGx-81" value="ServerSocketChannel" style="rounded=0;whiteSpace=wrap;html=1;fillColor=#d5e8d4;strokeColor=#82b366;" vertex="1" parent="1">
          <mxGeometry x="1156" y="186" width="129" height="45" as="geometry" />
        </mxCell>
        <mxCell id="Y4NBbjf7CDGHRnMnbZGx-86" style="edgeStyle=none;rounded=0;orthogonalLoop=1;jettySize=auto;html=1;exitX=0.5;exitY=0;exitDx=0;exitDy=0;endArrow=block;endFill=1;" edge="1" parent="1" source="Y4NBbjf7CDGHRnMnbZGx-82" target="Y4NBbjf7CDGHRnMnbZGx-80">
          <mxGeometry relative="1" as="geometry" />
        </mxCell>
        <mxCell id="Y4NBbjf7CDGHRnMnbZGx-82" value="SocketChannel" style="rounded=0;whiteSpace=wrap;html=1;fillColor=#d5e8d4;strokeColor=#82b366;" vertex="1" parent="1">
          <mxGeometry x="1315" y="186" width="129" height="45" as="geometry" />
        </mxCell>
        <mxCell id="Y4NBbjf7CDGHRnMnbZGx-87" style="edgeStyle=none;rounded=0;orthogonalLoop=1;jettySize=auto;html=1;exitX=0.5;exitY=0;exitDx=0;exitDy=0;entryX=0.75;entryY=0.975;entryDx=0;entryDy=0;entryPerimeter=0;endArrow=block;endFill=1;" edge="1" parent="1" source="Y4NBbjf7CDGHRnMnbZGx-83" target="Y4NBbjf7CDGHRnMnbZGx-80">
          <mxGeometry relative="1" as="geometry" />
        </mxCell>
        <mxCell id="Y4NBbjf7CDGHRnMnbZGx-83" value="SocketChannel" style="rounded=0;whiteSpace=wrap;html=1;fillColor=#d5e8d4;strokeColor=#82b366;" vertex="1" parent="1">
          <mxGeometry x="1482" y="186" width="129" height="45" as="geometry" />
        </mxCell>
        <mxCell id="Y4NBbjf7CDGHRnMnbZGx-88" style="edgeStyle=none;rounded=0;orthogonalLoop=1;jettySize=auto;html=1;exitX=0.5;exitY=0;exitDx=0;exitDy=0;endArrow=block;endFill=1;" edge="1" parent="1" source="Y4NBbjf7CDGHRnMnbZGx-84" target="Y4NBbjf7CDGHRnMnbZGx-80">
          <mxGeometry relative="1" as="geometry" />
        </mxCell>
        <mxCell id="Y4NBbjf7CDGHRnMnbZGx-84" value="。。。" style="rounded=0;whiteSpace=wrap;html=1;fillColor=#d5e8d4;strokeColor=#82b366;" vertex="1" parent="1">
          <mxGeometry x="1650" y="184" width="129" height="45" as="geometry" />
        </mxCell>
        <mxCell id="Y4NBbjf7CDGHRnMnbZGx-89" value="" style="rounded=1;whiteSpace=wrap;html=1;fillColor=#f8cecc;strokeColor=#b85450;opacity=30;" vertex="1" parent="1">
          <mxGeometry x="1117.5" y="112" width="645" height="56" as="geometry" />
        </mxCell>
        <mxCell id="Y4NBbjf7CDGHRnMnbZGx-90" value="注册" style="text;html=1;align=center;verticalAlign=middle;resizable=0;points=[];autosize=1;" vertex="1" parent="1">
          <mxGeometry x="1276" y="117" width="34" height="18" as="geometry" />
        </mxCell>
        <mxCell id="Y4NBbjf7CDGHRnMnbZGx-91" value="注册" style="text;html=1;align=center;verticalAlign=middle;resizable=0;points=[];autosize=1;" vertex="1" parent="1">
          <mxGeometry x="1373" y="117" width="34" height="18" as="geometry" />
        </mxCell>
        <mxCell id="Y4NBbjf7CDGHRnMnbZGx-92" value="注册" style="text;html=1;align=center;verticalAlign=middle;resizable=0;points=[];autosize=1;" vertex="1" parent="1">
          <mxGeometry x="1457" y="117" width="34" height="18" as="geometry" />
        </mxCell>
        <mxCell id="Y4NBbjf7CDGHRnMnbZGx-93" value="注册" style="text;html=1;align=center;verticalAlign=middle;resizable=0;points=[];autosize=1;" vertex="1" parent="1">
          <mxGeometry x="1538" y="117" width="34" height="18" as="geometry" />
        </mxCell>
        <mxCell id="Y4NBbjf7CDGHRnMnbZGx-94" value="SelectableChannel" style="text;html=1;align=center;verticalAlign=middle;resizable=0;points=[];autosize=1;" vertex="1" parent="1">
          <mxGeometry x="1120" y="117" width="111" height="18" as="geometry" />
        </mxCell>
      </root>
    </mxGraphModel>
  </diagram>
</mxfile>
